<svg width="30" height="30" viewBox="0 0 30 30" fill="none" xmlns="http://www.w3.org/2000/svg">
<circle cx="15" cy="15" r="15" fill="white"/>
<path d="M15.5 7C14.0166 7 12.5666 7.43987 11.3332 8.26398C10.0999 9.08809 9.13856 10.2594 8.57091 11.6299C8.00325 13.0003 7.85472 14.5083 8.14411 15.9632C8.4335 17.418 9.14781 18.7544 10.1967 19.8033C11.2456 20.8522 12.582 21.5665 14.0368 21.8559C15.4917 22.1453 16.9997 21.9968 18.3701 21.4291C19.7406 20.8614 20.9119 19.9001 21.736 18.6668C22.5601 17.4334 23 15.9834 23 14.5C22.9978 12.5116 22.2069 10.6052 20.8009 9.19914C19.3948 7.79309 17.4884 7.00221 15.5 7ZM16.3333 20.2729V16.4444H17.7222C17.9432 16.4444 18.1552 16.3566 18.3115 16.2004C18.4678 16.0441 18.5556 15.8321 18.5556 15.6111C18.5556 15.3901 18.4678 15.1781 18.3115 15.0219C18.1552 14.8656 17.9432 14.7778 17.7222 14.7778H16.3333V13.3889C16.3333 13.1679 16.4211 12.9559 16.5774 12.7996C16.7337 12.6434 16.9457 12.5556 17.1667 12.5556H18.2778C18.4988 12.5556 18.7108 12.4678 18.867 12.3115C19.0233 12.1552 19.1111 11.9432 19.1111 11.7222C19.1111 11.5012 19.0233 11.2892 18.867 11.133C18.7108 10.9767 18.4988 10.8889 18.2778 10.8889H17.1667C16.5036 10.8889 15.8677 11.1523 15.3989 11.6211C14.9301 12.09 14.6667 12.7258 14.6667 13.3889V14.7778H13.2778C13.0568 14.7778 12.8448 14.8656 12.6885 15.0219C12.5322 15.1781 12.4444 15.3901 12.4444 15.6111C12.4444 15.8321 12.5322 16.0441 12.6885 16.2004C12.8448 16.3566 13.0568 16.4444 13.2778 16.4444H14.6667V20.2729C13.207 20.0622 11.8813 19.3065 10.9564 18.1578C10.0315 17.0091 9.57603 15.5527 9.68165 14.0817C9.78726 12.6107 10.4461 11.2343 11.5257 10.2295C12.6052 9.22469 14.0252 8.66608 15.5 8.66608C16.9748 8.66608 18.3948 9.22469 19.4744 10.2295C20.5539 11.2343 21.2127 12.6107 21.3184 14.0817C21.424 15.5527 20.9685 17.0091 20.0436 18.1578C19.1187 19.3065 17.793 20.0622 16.3333 20.2729Z" fill="black"/>
</svg>
