<svg width="30" height="30" viewBox="0 0 30 30" fill="none" xmlns="http://www.w3.org/2000/svg">
<circle cx="15" cy="15" r="15" fill="#23F023"/>
<path d="M20.9324 20.7406C20.8854 20.819 20.8163 20.8845 20.7324 20.9301C20.6484 20.9757 20.5527 20.9999 20.4551 21H17.1823C17.0905 21 17.0002 20.9787 16.9197 20.9382C16.8393 20.8976 16.7713 20.8392 16.722 20.7681L13.9613 16.7913L9.94938 20.8363C9.85158 20.9326 9.71631 20.9896 9.5729 20.9951C9.42949 21.0006 9.2895 20.9541 9.18328 20.8656C9.07705 20.7771 9.01316 20.6538 9.00545 20.5224C8.99774 20.391 9.04683 20.2622 9.14209 20.1637L13.3538 15.9137L9.08549 9.76875C9.03293 9.69315 9.0035 9.60599 9.00029 9.51639C8.99709 9.42679 9.02022 9.33804 9.06727 9.25945C9.11433 9.18086 9.18356 9.11531 9.26774 9.06966C9.35192 9.02402 9.44793 8.99996 9.54573 9H12.8185C12.9103 9.00003 13.0006 9.02129 13.0811 9.06182C13.1616 9.10236 13.2295 9.16085 13.2788 9.23188L16.0395 13.2087L20.0514 9.16375C20.1492 9.06745 20.2845 9.01036 20.4279 9.00487C20.5713 8.99938 20.7113 9.04592 20.8175 9.13441C20.9238 9.2229 20.9876 9.3462 20.9954 9.47758C21.0031 9.60896 20.954 9.73783 20.8587 9.83625L16.647 14.0831L20.9153 20.2319C20.9676 20.3075 20.9967 20.3946 20.9997 20.4841C21.0027 20.5736 20.9795 20.6622 20.9324 20.7406Z" fill="white"/>
</svg>
